<svg width="16" height="20" viewBox="0 0 16 20" fill="none" xmlns="http://www.w3.org/2000/svg">
<path d="M8.05026 0C4.96939 0 2.44456 2.40488 2.44456 5.34005C2.44456 6.47733 2.82479 7.53432 3.46825 8.40303L7.3661 14.8406C7.91195 15.5219 8.27485 15.3925 8.72876 14.8046L13.0281 7.81495C13.1148 7.66483 13.183 7.50498 13.2424 7.34172C13.5152 6.70656 13.6555 6.0266 13.6554 5.34005C13.6556 2.40488 11.1315 0 8.05026 0ZM8.05026 2.50208C9.70949 2.50208 11.0288 3.7596 11.0288 5.34005C11.0288 6.9205 9.70949 8.17748 8.05026 8.17748C6.39121 8.17748 5.07133 6.92068 5.07133 5.34005C5.07133 3.7596 6.39121 2.50208 8.05026 2.50208Z" fill="#00C6BC"/>
<path d="M11.7605 9.83607L11.7511 9.86032C11.754 9.85301 11.7564 9.8455 11.7593 9.83818L11.7605 9.83607ZM4.91212 13.7151C2.14074 14.0993 0.202393 15.0186 0.202393 16.3718C0.202393 18.1946 3.44109 19.6721 8.04997 19.6721C12.6589 19.6721 15.8976 18.1946 15.8976 16.3718C15.8976 15.0186 13.9594 14.0993 11.1882 13.7151L10.8043 14.3566C12.8929 14.6409 14.328 15.2385 14.328 15.9319C14.328 16.9041 11.5172 17.6921 8.04997 17.6921C4.58272 17.6921 1.77191 16.9041 1.77191 15.9319C1.77171 15.2408 3.19742 14.6438 5.29253 14.3583C5.16599 14.1438 5.03886 13.9297 4.91212 13.7151Z" fill="#00C6BC"/>
</svg>
