<svg width="154" height="24" viewBox="0 0 154 24" fill="none" xmlns="http://www.w3.org/2000/svg">
<path d="M93.0502 0C89.9693 0 87.4445 2.40488 87.4445 5.34005C87.4445 6.47733 87.8247 7.53432 88.4682 8.40303L92.366 14.8406C92.9119 15.5219 93.2748 15.3925 93.7287 14.8046L98.0281 7.81495C98.1147 7.66483 98.183 7.50498 98.2423 7.34172C98.5151 6.70656 98.6554 6.0266 98.6553 5.34005C98.6555 2.40488 96.1314 0 93.0502 0ZM93.0502 2.50208C94.7094 2.50208 96.0287 3.7596 96.0287 5.34005C96.0287 6.9205 94.7094 8.17748 93.0502 8.17748C91.3912 8.17748 90.0713 6.92068 90.0713 5.34005C90.0713 3.7596 91.3912 2.50208 93.0502 2.50208Z" fill="#00C6BC"/>
<path d="M96.7604 9.83607L96.751 9.86032C96.754 9.85301 96.7563 9.8455 96.7593 9.83818L96.7604 9.83607ZM89.9121 13.7151C87.1407 14.0993 85.2023 15.0186 85.2023 16.3718C85.2023 18.1946 88.441 19.6721 93.0499 19.6721C97.6588 19.6721 100.897 18.1946 100.897 16.3718C100.897 15.0186 98.9593 14.0993 96.1882 13.7151L95.8042 14.3566C97.8928 14.6409 99.328 15.2385 99.328 15.9319C99.328 16.9041 96.5172 17.6921 93.0499 17.6921C89.5827 17.6921 86.7718 16.9041 86.7718 15.9319C86.7717 15.2408 88.1974 14.6438 90.2925 14.3583C90.1659 14.1438 90.0388 13.9297 89.9121 13.7151Z" fill="#00C6BC"/>
<path d="M0 5.9541H10.7624V8.55082H0V5.9541ZM8.17942 0.472131H10.9507V3.22623H9.01351C8.49332 3.20874 8.04489 3.2612 7.66821 3.38361C7.29152 3.50601 7.00453 3.73333 6.80722 4.06557C6.60991 4.38033 6.51125 4.83497 6.51125 5.42951V18.7541H3.01347V5.00984C3.01347 3.96065 3.21078 3.10382 3.6054 2.43934C4.00002 1.75738 4.58299 1.25902 5.35429 0.944263C6.1256 0.629508 7.06731 0.472131 8.17942 0.472131Z" fill="white"/>
<path d="M19.2769 19.0426C17.9495 19.0426 16.7387 18.7628 15.6446 18.2033C14.5683 17.6262 13.7073 16.8306 13.0616 15.8164C12.4338 14.7847 12.1199 13.5956 12.1199 12.2492C12.1199 10.8678 12.4428 9.66994 13.0885 8.65574C13.7342 7.64153 14.6042 6.85464 15.6984 6.29508C16.8105 5.71803 18.0661 5.42951 19.4652 5.42951C21.0078 5.42951 22.2455 5.73552 23.1782 6.34754C24.1289 6.94208 24.8195 7.75519 25.25 8.78688C25.6805 9.81858 25.8958 10.9727 25.8958 12.2492C25.8958 13.0186 25.7702 13.8055 25.5191 14.6098C25.268 15.3967 24.8823 16.1311 24.3621 16.8131C23.8419 17.4776 23.1603 18.0197 22.3173 18.4393C21.4742 18.8415 20.4607 19.0426 19.2769 19.0426ZM20.4069 16.4197C21.4652 16.4197 22.38 16.2448 23.1513 15.8951C23.9226 15.5454 24.5146 15.0557 24.9271 14.4262C25.3397 13.7967 25.546 13.071 25.546 12.2492C25.546 11.3574 25.3307 10.6055 24.9002 9.99344C24.4877 9.36393 23.8957 8.8918 23.1244 8.57705C22.3711 8.24481 21.4652 8.07869 20.4069 8.07869C18.9181 8.07869 17.7612 8.46339 16.9361 9.23279C16.1109 9.9847 15.6984 10.9902 15.6984 12.2492C15.6984 13.0885 15.8957 13.823 16.2903 14.4525C16.6849 15.0645 17.232 15.5454 17.9316 15.8951C18.6491 16.2448 19.4742 16.4197 20.4069 16.4197ZM25.546 5.71803H29.0438V18.7541H25.7881C25.7881 18.7541 25.7612 18.588 25.7074 18.2557C25.6715 17.906 25.6357 17.4689 25.5998 16.9443C25.5639 16.4197 25.546 15.9038 25.546 15.3967V5.71803Z" fill="white"/>
<path d="M31.6713 14.4262H34.9C35.0973 15.0208 35.5009 15.5104 36.1108 15.8951C36.7386 16.2623 37.5547 16.4459 38.5592 16.4459C39.2408 16.4459 39.77 16.3847 40.1467 16.2623C40.5234 16.1399 40.7835 15.965 40.927 15.7377C41.0705 15.4929 41.1422 15.2219 41.1422 14.9246C41.1422 14.5574 41.0256 14.2776 40.7924 14.0852C40.5592 13.8754 40.2005 13.7093 39.7162 13.5869C39.2319 13.4645 38.613 13.3508 37.8597 13.2459C37.1063 13.1235 36.3798 12.9749 35.6803 12.8C34.9807 12.6251 34.3619 12.3978 33.8238 12.118C33.2857 11.8208 32.8552 11.4536 32.5323 11.0164C32.2273 10.5617 32.0749 10.0109 32.0749 9.36393C32.0749 8.73443 32.2273 8.17486 32.5323 7.68525C32.8552 7.19563 33.2946 6.7847 33.8507 6.45246C34.4247 6.12022 35.0884 5.86667 35.8417 5.6918C36.613 5.51694 37.4381 5.42951 38.3171 5.42951C39.6444 5.42951 40.7476 5.62186 41.6265 6.00656C42.5054 6.37377 43.1602 6.89836 43.5906 7.58033C44.0391 8.24481 44.2633 9.01421 44.2633 9.88852H41.1691C41.0256 9.24153 40.7386 8.77814 40.3081 8.49836C39.8776 8.20109 39.2139 8.05246 38.3171 8.05246C37.4381 8.05246 36.7745 8.18361 36.326 8.4459C35.8776 8.7082 35.6534 9.06667 35.6534 9.52131C35.6534 9.88852 35.7879 10.177 36.057 10.3869C36.344 10.5792 36.7565 10.7366 37.2946 10.859C37.8507 10.9814 38.5413 11.1126 39.3664 11.2525C40.066 11.3923 40.7296 11.5497 41.3574 11.7246C42.0032 11.8995 42.5772 12.1268 43.0794 12.4066C43.5817 12.6689 43.9763 13.0273 44.2633 13.482C44.5682 13.9191 44.7207 14.4787 44.7207 15.1607C44.7207 16 44.4696 16.7082 43.9673 17.2852C43.483 17.8623 42.7835 18.3082 41.8687 18.623C40.9539 18.9202 39.8597 19.0689 38.5861 19.0689C37.4561 19.0689 36.4785 18.9552 35.6534 18.7279C34.8462 18.4831 34.1735 18.177 33.6354 17.8098C33.0973 17.4251 32.6758 17.0229 32.3708 16.6033C32.0839 16.1661 31.8865 15.7552 31.7789 15.3705C31.6713 14.9858 31.6354 14.671 31.6713 14.4262Z" fill="white"/>
<path d="M46.4549 5.71803H56.8406V8.36721H46.4549V5.71803ZM49.8988 2.15082H53.3966V18.7541H49.8988V2.15082Z" fill="white"/>
<path d="M75.2928 19.0689C74.109 19.0689 73.0955 18.8678 72.2525 18.4656C71.4273 18.0459 70.7547 17.5038 70.2345 16.8393C69.7143 16.1574 69.3287 15.4142 69.0776 14.6098C68.8264 13.8055 68.7009 13.0186 68.7009 12.2492C68.7009 11.2874 68.8175 10.3956 69.0507 9.57377C69.3018 8.75191 69.6874 8.03497 70.2076 7.42295C70.7278 6.79344 71.4004 6.30382 72.2256 5.9541C73.0686 5.60437 74.091 5.42951 75.2928 5.42951C76.6381 5.42951 77.8489 5.71803 78.9251 6.29508C80.0014 6.87213 80.8534 7.6765 81.4812 8.7082C82.127 9.7224 82.4498 10.9027 82.4498 12.2492C82.4498 13.6306 82.127 14.8372 81.4812 15.8689C80.8355 16.8831 79.9745 17.6699 78.8982 18.2295C77.822 18.7891 76.6202 19.0689 75.2928 19.0689ZM74.1628 16.4197C75.1135 16.4197 75.9386 16.2448 76.6381 15.8951C77.3556 15.5454 77.9027 15.0645 78.2794 14.4525C78.674 13.823 78.8713 13.0885 78.8713 12.2492C78.8713 10.9902 78.4588 9.97596 77.6337 9.20656C76.8265 8.43716 75.6695 8.05246 74.1628 8.05246C73.2121 8.05246 72.3421 8.21858 71.5529 8.55082C70.7816 8.88306 70.1717 9.36393 69.7233 9.99344C69.2749 10.6055 69.0507 11.3574 69.0507 12.2492C69.0507 13.0885 69.2569 13.823 69.6695 14.4525C70.082 15.0645 70.674 15.5454 71.4453 15.8951C72.2166 16.2448 73.1224 16.4197 74.1628 16.4197ZM65.5529 5.71803H68.8892L69.0507 9.18033V24H65.5529V5.71803Z" fill="white"/>
<path d="M107.976 0V2.99016H103.914V0H107.976ZM104.183 5.71803H107.681V18.7541H104.183V5.71803Z" fill="white"/>
<path d="M111.167 5.71803H114.665V18.7541H111.167V5.71803ZM120.88 5.42951C121.705 5.42951 122.467 5.53443 123.167 5.74426C123.867 5.9541 124.476 6.2776 124.997 6.71475C125.517 7.15191 125.92 7.71148 126.207 8.39344C126.494 9.05792 126.638 9.85355 126.638 10.7803V18.7541H123.14V11.3836C123.14 10.282 122.862 9.4776 122.306 8.97049C121.768 8.4459 120.88 8.18361 119.642 8.18361C118.71 8.18361 117.867 8.35847 117.113 8.7082C116.36 9.05792 115.75 9.50383 115.284 10.0459C114.817 10.5705 114.548 11.1213 114.476 11.6984L114.449 10.3607C114.539 9.74863 114.745 9.1541 115.068 8.57705C115.391 8 115.822 7.47541 116.36 7.00328C116.916 6.51366 117.571 6.12896 118.324 5.84918C119.077 5.5694 119.929 5.42951 120.88 5.42951Z" fill="white"/>
<path d="M128.881 5.71803H139.266V8.36721H128.881V5.71803ZM132.325 2.15082H135.822V18.7541H132.325V2.15082Z" fill="white"/>
<path d="M140.951 14.4262H144.179C144.377 15.0208 144.78 15.5104 145.39 15.8951C146.018 16.2623 146.834 16.4459 147.839 16.4459C148.52 16.4459 149.049 16.3847 149.426 16.2623C149.803 16.1399 150.063 15.965 150.206 15.7377C150.35 15.4929 150.422 15.2219 150.422 14.9246C150.422 14.5574 150.305 14.2776 150.072 14.0852C149.839 13.8754 149.48 13.7093 148.995 13.5869C148.511 13.4645 147.892 13.3508 147.139 13.2459C146.386 13.1235 145.659 12.9749 144.96 12.8C144.26 12.6251 143.641 12.3978 143.103 12.118C142.565 11.8208 142.134 11.4536 141.812 11.0164C141.507 10.5617 141.354 10.0109 141.354 9.36393C141.354 8.73443 141.507 8.17486 141.812 7.68525C142.134 7.19563 142.574 6.7847 143.13 6.45246C143.704 6.12022 144.368 5.86667 145.121 5.6918C145.892 5.51694 146.717 5.42951 147.596 5.42951C148.924 5.42951 150.027 5.62186 150.906 6.00656C151.785 6.37377 152.439 6.89836 152.87 7.58033C153.318 8.24481 153.543 9.01421 153.543 9.88852H150.448C150.305 9.24153 150.018 8.77814 149.587 8.49836C149.157 8.20109 148.493 8.05246 147.596 8.05246C146.717 8.05246 146.054 8.18361 145.605 8.4459C145.157 8.7082 144.933 9.06667 144.933 9.52131C144.933 9.88852 145.067 10.177 145.336 10.3869C145.623 10.5792 146.036 10.7366 146.574 10.859C147.13 10.9814 147.821 11.1126 148.646 11.2525C149.345 11.3923 150.009 11.5497 150.637 11.7246C151.283 11.8995 151.856 12.1268 152.359 12.4066C152.861 12.6689 153.256 13.0273 153.543 13.482C153.848 13.9191 154 14.4787 154 15.1607C154 16 153.749 16.7082 153.247 17.2852C152.762 17.8623 152.063 18.3082 151.148 18.623C150.233 18.9202 149.139 19.0689 147.865 19.0689C146.735 19.0689 145.758 18.9552 144.933 18.7279C144.126 18.4831 143.453 18.177 142.915 17.8098C142.377 17.4251 141.955 17.0229 141.65 16.6033C141.363 16.1661 141.166 15.7552 141.058 15.3705C140.951 14.9858 140.915 14.671 140.951 14.4262Z" fill="white"/>
</svg>
